/* XPM */
static char * bricksSO_xpm[] = {
"64 64 4 1",
"x	c #00ff00",
"q	c #ff0000",
" 	c #660000",
".	c #990000",
"x                                                               ",
"                                                                ",
"                                                                ",
"                                                                ",
"   .............................    ..........................  ",
"   .............................    ..........................  ",
"   .............................    ..........................  ",
"   .............................    ..........................  ",
"   .............................    ..........................  ",
"   .............................    ..........................  ",
"   .............................    ..........................  ",
"   .............................    ..........................  ",
"   .............................    ..........................  ",
"   .............................    ..........................  ",
"   .............................    ..........................  ",
"   .............................    ..........................  ",
"                                                                ",
"                                                                ",
"                                                                ",
"  ..................   ...........................  ..........  ",
"  ..................   ...........................  ..........  ",
"  ..................   ...........................  ..........  ",
"  ..................   ...........................  ..........  ",
"  ..................   ...........................  ..........  ",
"  ..................   ...........................  ..........  ",
"  ..................   ...........................  ..........  ",
"  ..................   ...........................  ..........  ",
"  ..................   ...........................  ..........  ",
"  ..................   ...........................  ..........  ",
"  ..................   ...........................  ..........  ",
"  ..................   ...........................  ..........  ",
"                                                                ",
"                                                                ",
"                                                                ",
"  ........   ...........................    ................... ",
"  ........   ...........................    ................... ",
"  ........   ...........................    ................... ",
"  ........   ...........................    ................... ",
"  ........   ...........................    ................... ",
"  ........   ...........................    ................... ",
"  ........   ...........................    ................... ",
"  ........   ...........................    ................... ",
"  ........   ...........................    ................... ",
"  ........   ...........................    ................... ",
"  ........   ...........................    ................... ",
"  ........   ...........................    ................... ",
"                                                                ",
"                                                                ",
"                                                                ",
" ...............................   ...........................  ",
" ...............................   ...........................  ",
" ...............................   ...........................  ",
" ...............................   ...........................  ",
" ...............................   ...........................  ",
" ...............................   ...........................  ",
" ...............................   ...........................  ",
" ...............................   ...........................  ",
" ...............................   ...........................  ",
" ...............................   ...........................  ",
" ...............................   ...........................  ",
" ...............................   ...........................  ",
" ...............................                                ",
"                                                                ",
"                                                               q"};
