/* XPM */
static char * bricksNO_xpm[] = {
"64 64 2 1",
" 	c #663300",
".	c #cc6600",
"                                                                ",
"                                                                ",
"                                                                ",
"                                                                ",
"   .............................    ..........................  ",
"   .............................    ..........................  ",
"   .............................    ..........................  ",
"   .............................    ..........................  ",
"   .............................    ..........................  ",
"   .............................    ..........................  ",
"   .............................    ..........................  ",
"   .............................    ..........................  ",
"   .............................    ..........................  ",
"   .............................    ..........................  ",
"   .............................    ..........................  ",
"   .............................    ..........................  ",
"                                                                ",
"                                                                ",
"                                                                ",
"  ..................   ...........................  ..........  ",
"  ..................   ...........................  ..........  ",
"  ..................   ...........................  ..........  ",
"  ..................   ...........................  ..........  ",
"  ..................   ...........................  ..........  ",
"  ..................   ...........................  ..........  ",
"  ..................   ...........................  ..........  ",
"  ..................   ...........................  ..........  ",
"  ..................   ...........................  ..........  ",
"  ..................   ...........................  ..........  ",
"  ..................   ...........................  ..........  ",
"  ..................   ...........................  ..........  ",
"                                                                ",
"                                                                ",
"                                                                ",
"  ........   ...........................    ................... ",
"  ........   ...........................    ................... ",
"  ........   ...........................    ................... ",
"  ........   ...........................    ................... ",
"  ........   ...........................    ................... ",
"  ........   ...........................    ................... ",
"  ........   ...........................    ................... ",
"  ........   ...........................    ................... ",
"  ........   ...........................    ................... ",
"  ........   ...........................    ................... ",
"  ........   ...........................    ................... ",
"  ........   ...........................    ................... ",
"                                                                ",
"                                                                ",
"                                                                ",
" ...............................   ...........................  ",
" ...............................   ...........................  ",
" ...............................   ...........................  ",
" ...............................   ...........................  ",
" ...............................   ...........................  ",
" ...............................   ...........................  ",
" ...............................   ...........................  ",
" ...............................   ...........................  ",
" ...............................   ...........................  ",
" ...............................   ...........................  ",
" ...............................   ...........................  ",
" ...............................   ...........................  ",
" ...............................                                ",
"                                                                ",
"                                                                "};


